<?xml version="1.0" standalone="no"?>
<!DOCTYPE svg PUBLIC "-//W3C//DTD SVG 20010904//EN"
 "http://www.w3.org/TR/2001/REC-SVG-20010904/DTD/svg10.dtd">
<svg version="1.0" xmlns="http://www.w3.org/2000/svg"
 width="500.000000pt" height="500.000000pt" viewBox="0 0 500.000000 500.000000"
 preserveAspectRatio="xMidYMid meet">
<metadata>
Created by potrace 1.16, written by Peter Selinger 2001-2019
</metadata>
<g transform="translate(0.000000,500.000000) scale(0.100000,-0.100000)"
fill="#000000" stroke="none">
<path d="M4123 3335 c-40 -17 -48 -33 -67 -132 -28 -146 -39 -343 -27 -450 11
-89 10 -97 -9 -127 -32 -52 -123 -133 -159 -141 -43 -9 -88 10 -107 47 -18 34
-21 28 72 128 76 82 101 139 96 217 -1 13 -13 30 -26 38 -90 59 -242 -106
-254 -276 -5 -76 8 -126 45 -170 80 -94 192 -74 310 55 l60 66 27 -40 c33 -50
65 -64 116 -50 79 21 154 148 169 289 6 51 8 54 46 69 51 20 145 81 152 99 10
25 -7 27 -45 4 -42 -26 -107 -56 -140 -66 -16 -5 -24 -2 -29 12 -11 31 -35 53
-58 53 -32 0 -65 -40 -65 -79 0 -27 5 -35 30 -44 27 -10 30 -16 30 -52 0 -22
-7 -64 -14 -93 -39 -147 -122 -177 -156 -56 -11 39 -11 50 3 80 19 40 21 61 7
66 -6 2 -3 36 9 93 39 176 52 438 25 465 -5 5 -23 3 -41 -5z"/>
<path d="M3446 3229 c-31 -17 -37 -25 -32 -42 3 -12 18 -65 33 -117 26 -91 27
-104 27 -320 0 -195 -3 -239 -23 -330 -34 -158 -69 -222 -114 -205 -18 8 -50
66 -71 130 -37 118 -49 233 -50 497 -1 141 -4 259 -8 263 -18 19 -57 -7 -79
-51 -30 -63 -35 -163 -15 -288 15 -90 15 -109 1 -220 -30 -230 -72 -373 -117
-400 -36 -22 -84 53 -112 175 -43 187 -18 605 44 747 l19 42 -22 0 c-34 -1
-104 -36 -111 -57 -24 -77 -40 -248 -41 -443 l-1 -216 -31 -45 c-38 -54 -100
-112 -116 -106 -7 2 -18 16 -25 30 -13 27 -11 73 14 305 8 69 6 70 -50 47 -52
-22 -58 -47 -54 -210 3 -108 8 -148 22 -177 18 -37 65 -68 105 -68 28 0 82 50
122 112 l33 51 21 -69 c58 -188 141 -264 220 -202 38 29 91 148 117 259 l21
91 24 -81 c61 -213 136 -269 225 -170 105 115 171 478 148 805 -11 145 -13
163 -37 237 -17 53 -28 57 -87 26z"/>
<path d="M845 2686 c-66 -21 -98 -42 -148 -95 -101 -108 -156 -276 -164 -501
-5 -127 -3 -156 16 -230 41 -162 129 -260 241 -268 77 -6 121 11 175 64 74 75
136 233 94 241 -10 3 -22 -14 -39 -53 -49 -120 -156 -193 -234 -160 -92 38
-131 164 -130 411 1 138 5 173 27 258 45 171 119 277 192 277 21 0 43 -8 54
-19 38 -38 35 -198 -5 -243 -31 -33 17 -75 76 -66 42 6 65 51 69 139 5 126
-46 226 -127 249 -45 12 -47 12 -97 -4z"/>
<path d="M1165 2684 c-16 -9 -31 -17 -32 -18 -2 -1 2 -27 7 -58 5 -33 5 -191
0 -389 -6 -234 -6 -337 2 -346 12 -15 64 -17 73 -3 9 14 37 651 33 748 -3 74
-4 77 -28 79 -14 2 -38 -5 -55 -13z"/>
<path d="M2229 2602 c-43 -43 -57 -83 -42 -122 8 -22 5 -40 -18 -96 -55 -136
-27 -155 37 -25 l42 83 47 -73 c94 -145 100 -166 59 -198 -32 -25 -42 -21 -81
36 l-32 46 -30 -31 c-40 -40 -39 -67 5 -108 66 -63 144 -43 199 51 57 96 54
112 -36 232 -70 92 -81 120 -63 155 19 37 18 65 -5 78 -31 16 -41 13 -82 -28z"/>
<path d="M1867 2521 c-40 -45 -54 -90 -36 -119 10 -16 7 -32 -19 -98 -35 -87
-38 -100 -19 -107 13 -5 -30 -95 -66 -134 -23 -25 -51 -30 -64 -10 -4 6 -10
77 -13 157 -5 143 -5 145 -27 143 -19 -2 -23 2 -23 27 0 19 -8 34 -22 44 -94
66 -240 -107 -263 -309 -9 -77 7 -139 46 -178 25 -24 35 -28 62 -23 48 10 105
52 135 100 l26 42 21 -41 c18 -36 24 -40 61 -43 62 -5 93 27 164 172 60 122
69 153 50 172 -7 7 -6 16 3 28 12 16 19 9 70 -71 76 -121 81 -135 56 -167 -34
-44 -59 -30 -115 62 -6 10 -46 -23 -60 -49 -14 -28 -14 -33 1 -55 21 -33 73
-64 106 -64 60 0 145 96 156 177 5 36 0 46 -55 118 -32 44 -67 95 -76 113 -16
31 -16 36 0 78 13 35 14 47 4 59 -23 28 -65 18 -103 -24z m-347 -187 c0 -23 3
-25 25 -20 l25 6 0 -90 c0 -101 -15 -143 -68 -193 -54 -52 -92 -17 -92 86 0
94 58 237 96 237 8 0 14 -10 14 -26z"/>
</g>
</svg>
